<svg width="313" height="87" viewBox="0 0 313 87" fill="none" xmlns="http://www.w3.org/2000/svg">
<rect y="-0.00488281" width="313" height="86.359" rx="5" fill="#333F51"/>
<path fill-rule="evenodd" clip-rule="evenodd" d="M135.864 50.8827H129.936L128.512 55.1697H126.002L131.616 39.309H134.225L139.839 55.1697H137.286L135.864 50.8827ZM130.55 48.9045H135.248L132.932 41.9471H132.867L130.55 48.9045ZM151.965 49.3885C151.965 52.9819 150.079 55.2907 147.234 55.2907C145.763 55.3691 144.377 54.5833 143.666 53.2675H143.612V58.9951H141.285V43.606H143.538V45.5293H143.581C144.323 44.2218 145.71 43.4363 147.191 43.485C150.068 43.485 151.965 45.805 151.965 49.3885ZM149.573 49.3885C149.573 47.0473 148.387 45.5081 146.577 45.5081C144.799 45.5081 143.603 47.0797 143.603 49.3885C143.603 51.7184 144.799 53.2788 146.577 53.2788C148.387 53.2788 149.573 51.7508 149.573 49.3885ZM164.444 49.3885C164.444 52.9819 162.559 55.2907 159.713 55.2907C158.242 55.3691 156.856 54.5833 156.145 53.2675H156.091V58.9951H153.764V43.606H156.017V45.5293H156.06C156.802 44.2218 158.189 43.4363 159.67 43.485C162.548 43.485 164.444 45.805 164.444 49.3885ZM162.052 49.3885C162.052 47.0473 160.866 45.5081 159.056 45.5081C157.278 45.5081 156.082 47.0797 156.082 49.3885C156.082 51.7184 157.278 53.2788 159.056 53.2788C160.866 53.2788 162.052 51.7508 162.052 49.3885ZM172.692 50.7505C172.865 52.3233 174.363 53.3561 176.41 53.3561C178.372 53.3561 179.783 52.3233 179.783 50.9051C179.783 49.674 178.932 48.9369 176.916 48.4317L174.901 47.9365C172.045 47.2331 170.719 45.871 170.719 43.6608C170.719 40.9242 173.058 39.0446 176.378 39.0446C179.664 39.0446 181.917 40.9242 181.993 43.6608H179.643C179.503 42.078 178.22 41.1226 176.345 41.1226C174.47 41.1226 173.187 42.0892 173.187 43.4962C173.187 44.6175 174.007 45.2773 176.011 45.7824L177.725 46.2115C180.915 46.9811 182.241 48.2883 182.241 50.6082C182.241 53.5755 179.924 55.434 176.238 55.434C172.789 55.434 170.46 53.6192 170.31 50.7504L172.692 50.7505ZM187.264 40.8694V43.606H189.42V45.4857H187.264V51.8606C187.264 52.8509 187.696 53.3124 188.643 53.3124C188.899 53.3079 189.155 53.2896 189.409 53.2575V55.126C188.983 55.2072 188.55 55.244 188.116 55.2357C185.821 55.2357 184.926 54.3564 184.926 52.1138V45.4857H183.277V43.606H184.925V40.8694H187.264ZM190.669 49.3885C190.669 45.7501 192.77 43.4638 196.046 43.4638C199.333 43.4638 201.425 45.7501 201.425 49.3885C201.425 53.0368 199.344 55.3131 196.046 55.3131C192.749 55.3131 190.669 53.0368 190.669 49.3885ZM199.053 49.3885C199.053 46.8926 197.932 45.4196 196.046 45.4196C194.16 45.4196 193.04 46.9039 193.04 49.3885C193.04 51.8943 194.16 53.3561 196.046 53.3561C197.932 53.3561 199.053 51.8943 199.053 49.3885ZM203.343 43.606H205.563V45.5742H205.617C205.927 44.3072 207.065 43.4352 208.344 43.485C208.612 43.484 208.88 43.5137 209.142 43.5735V45.7937C208.803 45.6882 208.45 45.6398 208.096 45.6503C207.412 45.622 206.75 45.9001 206.283 46.4116C205.817 46.9231 205.593 47.6169 205.671 48.3108V55.1697H203.343L203.343 43.606ZM219.872 51.7733C219.559 53.8725 217.554 55.3131 214.99 55.3131C211.691 55.3131 209.644 53.0592 209.644 49.4433C209.644 45.8162 211.702 43.4638 214.892 43.4638C218.029 43.4638 220.002 45.6615 220.002 49.1677V49.9809H211.994V50.1244C211.919 50.9852 212.21 51.8374 212.794 52.4641C213.377 53.0908 214.197 53.4315 215.044 53.3997C216.173 53.5077 217.238 52.8462 217.662 51.7733L219.872 51.7733ZM212.005 48.322L217.673 48.322C217.715 47.5484 217.439 46.792 216.911 46.2349C216.383 45.6777 215.651 45.3705 214.892 45.3871C214.126 45.3825 213.391 45.6899 212.849 46.241C212.306 46.7921 212.003 47.5413 212.005 48.322ZM130.258 27.3706C131.246 27.2983 132.214 27.6817 132.895 28.4152C133.576 29.1488 133.899 30.1552 133.774 31.1574C133.774 33.5921 132.484 34.9917 130.258 34.9917H127.559V27.3706H130.258ZM128.72 33.9139H130.128C130.835 33.9569 131.522 33.6732 132 33.1415C132.478 32.6098 132.696 31.8866 132.593 31.1729C132.688 30.4622 132.468 29.7451 131.991 29.2177C131.514 28.6903 130.831 28.4078 130.128 28.4476H128.72V33.9139ZM135.085 32.1134C134.988 31.0825 135.473 30.0849 136.336 29.5388C137.199 28.9928 138.29 28.9928 139.153 29.5388C140.016 30.0849 140.501 31.0825 140.404 32.1134C140.502 33.1454 140.018 34.145 139.155 34.6922C138.291 35.2394 137.198 35.2394 136.334 34.6922C135.471 34.145 134.987 33.1454 135.085 32.1134ZM139.259 32.1134C139.259 30.8667 138.71 30.1377 137.746 30.1377C136.779 30.1377 136.235 30.8667 136.235 32.1134C136.235 33.3701 136.779 34.0935 137.746 34.0935C138.71 34.0935 139.259 33.3651 139.259 32.1134ZM147.474 34.9915H146.319L145.154 30.7557H145.066L143.905 34.9915H142.762L141.207 29.2403H142.336L143.346 33.6288H143.43L144.589 29.2403H145.657L146.816 33.6288H146.904L147.909 29.2403H149.022L147.474 34.9915ZM150.33 29.2403H151.401V30.1539H151.484C151.773 29.4812 152.449 29.0697 153.167 29.1292C153.723 29.0866 154.267 29.3041 154.647 29.7202C155.027 30.1364 155.2 30.706 155.119 31.2683V34.9915H154.006V31.5534C154.006 30.6291 153.612 30.1695 152.789 30.1695C152.412 30.1516 152.046 30.3025 151.787 30.5826C151.528 30.8628 151.402 31.2442 151.442 31.627V34.9915H150.33L150.33 29.2403ZM156.892 26.9951H158.005V34.9915H156.892V26.9951ZM159.552 32.1134C159.455 31.0825 159.94 30.0848 160.803 29.5387C161.666 28.9927 162.757 28.9927 163.62 29.5387C164.483 30.0848 164.968 31.0825 164.871 32.1134C164.97 33.1454 164.485 34.145 163.622 34.6922C162.758 35.2394 161.665 35.2394 160.801 34.6922C159.938 34.145 159.454 33.1454 159.552 32.1134ZM163.726 32.1134C163.726 30.8667 163.177 30.1377 162.213 30.1377C161.246 30.1377 160.702 30.8667 160.702 32.1134C160.702 33.3701 161.246 34.0935 162.213 34.0935C163.177 34.0935 163.726 33.3651 163.726 32.1134ZM166.043 33.3651C166.043 32.3298 166.799 31.733 168.14 31.6482L169.668 31.5584V31.0619C169.668 30.4545 169.274 30.1115 168.513 30.1115C167.892 30.1115 167.462 30.3441 167.338 30.7508H166.261C166.374 29.7629 167.285 29.1293 168.565 29.1293C169.978 29.1293 170.776 29.8471 170.776 31.0619V34.9916H169.704V34.1833H169.616C169.253 34.7736 168.605 35.1185 167.923 35.0863C167.444 35.1371 166.966 34.979 166.608 34.651C166.25 34.3231 166.045 33.8559 166.043 33.3651ZM169.668 32.8736V32.3928L168.291 32.4826C167.514 32.5356 167.162 32.805 167.162 33.3121C167.162 33.8297 167.602 34.1309 168.208 34.1309C168.566 34.1679 168.924 34.055 169.199 33.818C169.474 33.581 169.643 33.2402 169.668 32.8736ZM172.238 32.1134C172.238 30.2961 173.154 29.1449 174.579 29.1449C175.299 29.111 175.972 29.5042 176.308 30.1539H176.392V26.9951H177.505V34.9915H176.438V34.0829H176.35C175.989 34.7271 175.307 35.1137 174.579 35.0863C173.145 35.0864 172.238 33.9351 172.238 32.1134ZM173.388 32.1134C173.388 33.3333 173.952 34.0673 174.895 34.0673C175.833 34.0673 176.412 33.3227 176.412 32.1184C176.412 30.9198 175.827 30.1645 174.895 30.1645C173.958 30.1645 173.388 30.9035 173.388 32.1134ZM182.109 32.1134C182.012 31.0825 182.497 30.0849 183.36 29.5388C184.223 28.9928 185.314 28.9928 186.177 29.5388C187.04 30.0849 187.524 31.0825 187.428 32.1134C187.526 33.1454 187.042 34.145 186.178 34.6922C185.315 35.2394 184.222 35.2394 183.358 34.6922C182.495 34.145 182.01 33.1454 182.109 32.1134ZM186.283 32.1134C186.283 30.8667 185.734 30.1377 184.77 30.1377C183.803 30.1377 183.259 30.8667 183.259 32.1134C183.259 33.3701 183.803 34.0935 184.77 34.0935C185.734 34.0935 186.283 33.3651 186.283 32.1134ZM188.921 29.2403H189.992V30.1539H190.075C190.365 29.4812 191.04 29.0697 191.758 29.1292C192.314 29.0866 192.859 29.3041 193.238 29.7202C193.618 30.1364 193.792 30.706 193.71 31.2683V34.9915H192.597V31.5534C192.597 30.6291 192.203 30.1695 191.38 30.1695C191.003 30.1516 190.638 30.3025 190.379 30.5826C190.12 30.8628 189.994 31.2442 190.034 31.627V34.9915H188.921V29.2403ZM199.999 27.8084V29.2665H201.22V30.2225H199.999V33.1799C199.999 33.7823 200.242 34.0461 200.796 34.0461C200.938 34.0456 201.08 34.0369 201.22 34.0199V34.9653C201.021 35.0018 200.818 35.0212 200.615 35.0233C199.377 35.0233 198.885 34.5793 198.885 33.4705V30.2225H197.989V29.2664H198.885V27.8084H199.999ZM202.741 26.9951H203.844V30.1645H203.932C204.235 29.4859 204.922 29.0739 205.651 29.1342C206.204 29.1036 206.741 29.3258 207.117 29.7404C207.492 30.1551 207.667 30.7189 207.593 31.2783V34.9915H206.479V31.5583C206.479 30.6397 206.06 30.1745 205.273 30.1745C204.886 30.1421 204.505 30.2856 204.231 30.5668C203.957 30.8479 203.819 31.2379 203.853 31.6326V34.9915H202.741L202.741 26.9951ZM214.082 33.4387C213.77 34.5235 212.741 35.2244 211.639 35.1025C210.887 35.1228 210.164 34.8049 209.663 34.2333C209.161 33.6616 208.931 32.894 209.034 32.134C208.934 31.3719 209.163 30.603 209.662 30.0266C210.161 29.4501 210.88 29.1227 211.634 29.1293C213.203 29.1293 214.15 30.2226 214.15 32.0286V32.4246H210.168V32.4882C210.132 32.915 210.275 33.3371 210.561 33.6508C210.847 33.9645 211.25 34.1406 211.669 34.1359C212.214 34.2025 212.744 33.9271 213.011 33.4386L214.082 33.4387ZM210.168 31.5852H213.016C213.044 31.1949 212.91 30.8105 212.645 30.5267C212.381 30.243 212.011 30.0863 211.628 30.0953C211.239 30.0903 210.865 30.2457 210.59 30.5262C210.315 30.8067 210.163 31.1886 210.168 31.5852ZM113.315 43.1618C113.318 45.8413 114.927 48.2594 117.402 49.3032C116.926 50.845 116.208 52.3021 115.276 53.6204C114.024 55.4882 112.711 57.3129 110.628 57.3466C108.603 57.3932 107.923 56.1585 105.601 56.1585C103.257 56.1585 102.532 57.3129 100.591 57.3932C98.6065 57.4665 97.0901 55.3998 95.7926 53.5495C93.1993 49.771 91.1799 42.901 93.8871 38.2265C95.1584 35.9482 97.5354 34.5025 100.148 34.4183C102.134 34.3776 103.979 35.7559 105.2 35.7559C106.398 35.7559 108.676 34.1071 111.027 34.3532C113.261 34.4229 115.332 35.5392 116.614 37.3653C114.591 38.6058 113.346 40.7934 113.315 43.1618ZM109.491 31.8681C108.389 33.2352 106.719 34.0227 104.96 34.0046C104.849 32.2905 105.425 30.6024 106.561 29.312C107.713 28.0041 109.316 27.1769 111.051 26.9951C111.187 28.76 110.627 30.5081 109.491 31.8681Z" fill="white"/>
</svg>
