<svg width="313" height="87" viewBox="0 0 313 87" fill="none" xmlns="http://www.w3.org/2000/svg">
<rect width="313" height="86.359" rx="5" fill="#333F51"/>
<path fill-rule="evenodd" clip-rule="evenodd" d="M132.012 30.2409C132.054 31.1693 131.723 32.0747 131.094 32.7458C130.392 33.4921 129.413 33.8974 128.401 33.8606C126.849 33.8481 125.455 32.8851 124.865 31.4168C124.274 29.9486 124.601 28.2611 125.695 27.1347C126.406 26.3924 127.385 25.9843 128.401 26.0075C128.918 26.0057 129.431 26.1123 129.907 26.3206C130.35 26.5034 130.744 26.791 131.057 27.1598L130.409 27.8236C129.913 27.2207 129.169 26.8913 128.401 26.9343C127.628 26.9304 126.887 27.2488 126.349 27.816C125.811 28.3832 125.521 29.1502 125.548 29.9403C125.532 31.1341 126.219 32.2208 127.29 32.6948C128.361 33.1688 129.606 32.9369 130.445 32.1071C130.822 31.6894 131.039 31.147 131.057 30.579H128.401V29.6773H131.963C131.996 29.8633 132.012 30.0519 132.012 30.2409ZM137.62 27.1097H134.314V29.4894H137.326V30.3912H134.314V32.7709H137.62V33.6977H133.335V26.1828H137.62V27.1097ZM141.635 33.6977H140.693V27.1097H138.636V26.1828H143.741V27.1097H141.635V33.6977ZM147.341 33.6977V26.1828H148.283V33.6977H147.341ZM152.47 33.6977H151.528V27.1097H149.471V26.1828H154.515V27.1097H152.47V33.6977ZM164.077 32.7208C162.587 34.2366 160.18 34.2366 158.69 32.7208C157.245 31.1567 157.245 28.7113 158.69 27.1472C159.402 26.413 160.372 26 161.383 26C162.395 26 163.364 26.413 164.077 27.1472C165.527 28.7088 165.527 31.1592 164.077 32.7208ZM159.388 32.0945C160.491 33.2187 162.275 33.2187 163.379 32.0945C164.462 30.8723 164.462 29.0082 163.379 27.786C162.275 26.6618 160.491 26.6618 159.388 27.786C158.304 29.0082 158.304 30.8723 159.388 32.0945ZM166.488 33.6977V26.1828H167.639L171.214 32.0319V26.1828H172.157V33.6977H171.177L167.443 27.5731V33.6977H166.488ZM157.38 44.657C158.77 44.6297 160.111 45.1809 161.097 46.1844C162.082 47.1879 162.628 48.5577 162.607 49.98C162.607 52.9166 160.283 55.2984 157.412 55.303C154.542 55.3076 152.21 52.9332 152.201 49.9967C152.192 47.0601 154.509 44.6708 157.38 44.657ZM157.38 53.2114C158.192 53.1922 158.962 52.8382 159.515 52.2297C160.068 51.6213 160.358 50.81 160.318 49.98C160.315 48.6532 159.519 47.4632 158.312 46.9792C157.104 46.4952 155.73 46.8155 154.847 47.787C153.963 48.7585 153.75 50.1836 154.309 51.3809C154.868 52.5781 156.086 53.304 157.38 53.2114ZM145.982 44.657H145.969C147.36 44.6297 148.701 45.1809 149.687 46.1844C150.672 47.1879 151.217 48.5577 151.197 49.98C151.197 52.9182 148.87 55.3008 145.998 55.3031C143.126 55.3054 140.795 52.9266 140.791 49.9884C140.786 47.0502 143.109 44.6639 145.982 44.657ZM145.982 53.2114H145.969C146.781 53.1922 147.551 52.8382 148.105 52.2297C148.658 51.6213 148.947 50.81 148.908 49.98C148.904 48.6521 148.107 47.4616 146.898 46.9787C145.689 46.4957 144.314 46.8187 143.432 47.7928C142.55 48.767 142.34 50.194 142.903 51.3904C143.466 52.5869 144.687 53.3092 145.982 53.2114ZM132.404 46.2977L139.836 46.2351C139.921 46.7017 139.962 47.1757 139.958 47.6504C140.016 49.599 139.331 51.4942 138.048 52.9359C136.582 54.5061 134.524 55.351 132.404 55.253C129.44 55.371 126.65 53.8206 125.134 51.2124C123.618 48.6042 123.618 45.3564 125.134 42.7483C126.65 40.1401 129.44 38.5897 132.404 38.7077C134.486 38.6892 136.487 39.5341 137.95 41.0498L136.395 42.6405C135.323 41.5809 133.883 40.9999 132.392 41.0248C129.146 41.0248 126.515 43.7164 126.515 47.0367C126.515 50.357 129.146 53.0486 132.392 53.0486C133.918 53.1108 135.399 52.5103 136.469 51.3953C137.179 50.616 137.61 49.6141 137.693 48.5522H132.404V46.2977ZM187.877 48.0512L188.134 48.6148L181.168 51.5582C181.604 52.5754 182.605 53.2162 183.69 53.1739C184.738 53.1766 185.71 52.6152 186.249 51.6959L188.024 52.9484C187.057 54.4282 185.429 55.3127 183.69 55.3031C182.307 55.3238 180.975 54.7684 180.001 53.7645C179.027 52.7606 178.493 51.3945 178.523 49.98C178.439 48.5979 178.917 47.2417 179.845 46.2333C180.772 45.2249 182.067 44.6543 183.42 44.657C185.45 44.7334 187.223 46.0838 187.877 48.0512ZM180.776 49.8297L185.428 47.8508C185.062 47.1127 184.301 46.6692 183.494 46.7236C182.728 46.7589 182.008 47.1081 181.497 47.6925C180.986 48.2768 180.726 49.0471 180.776 49.8297ZM175.12 54.99V39.3339H177.409V54.99H175.12ZM171.373 45.8468V44.9701H173.479V54.4514C173.479 58.3842 171.263 59.9999 168.582 59.9999C166.561 60.0123 164.735 58.7685 163.966 56.8562L165.962 56.0045C166.379 57.1205 167.414 57.8678 168.582 57.8957C170.296 57.8957 171.361 56.8061 171.361 54.7645V54.0005H171.288C170.6 54.8125 169.595 55.2711 168.545 55.253C165.766 55.1151 163.582 52.77 163.582 49.9237C163.582 47.0774 165.766 44.7322 168.545 44.5943C169.592 44.5929 170.59 45.0486 171.288 45.8468H171.373ZM168.753 53.2114H168.741C169.537 53.1801 170.285 52.8171 170.813 52.2067C171.34 51.5963 171.6 50.7917 171.533 49.98C171.593 49.1721 171.332 48.3734 170.809 47.765C170.286 47.1566 169.544 46.7901 168.753 46.7486C167.116 46.8962 165.861 48.2988 165.861 49.98C165.861 51.6612 167.116 53.0638 168.753 53.2114ZM198.614 39.3339C200.392 39.2032 202.093 40.0998 203.021 41.6573C203.95 43.2148 203.95 45.1723 203.021 46.7298C202.093 48.2873 200.392 49.1839 198.614 49.0532H195.418V54.99H193.129V39.3339H198.614ZM198.602 46.8488L198.651 46.8864C200.101 46.8864 201.277 45.6836 201.277 44.1998C201.277 42.7161 200.101 41.5132 198.651 41.5132H195.406V46.8488H198.602ZM212.718 44.5943L212.779 44.6319C215.387 44.6319 217.419 46.2226 217.419 48.9655V54.99H215.215V53.7375H215.142C214.505 54.7504 213.378 55.3267 212.204 55.2405C211.251 55.3125 210.31 54.9872 209.595 54.3384C208.88 53.6897 208.452 52.7727 208.408 51.7961C208.408 49.5291 210.624 48.2767 212.816 48.2767C213.648 48.2731 214.468 48.4796 215.203 48.8778V48.715C215.145 48.1133 214.852 47.5608 214.392 47.1816C213.932 46.8024 213.342 46.6284 212.754 46.6985C211.899 46.6269 211.083 47.0789 210.673 47.8508L208.641 46.9866C209.413 45.4299 211.014 44.4902 212.718 44.5943ZM212.436 53.1739L212.497 53.2114C213.877 53.177 215.02 52.1085 215.179 50.7065C214.543 50.3437 213.825 50.1621 213.097 50.1804C211.946 50.1804 210.649 50.5937 210.649 51.8462C210.649 52.7856 211.689 53.1739 212.436 53.1739ZM225.45 44.9701H227.997L221.729 59.7369H219.341L221.667 54.4639L217.59 44.9701H220.039L222.757 51.7586H222.83L225.45 44.9701ZM204.87 54.99V39.3339H207.159V54.99H204.87ZM114.217 41.9583C114.526 42.1373 114.711 42.4576 114.711 42.8151C114.711 43.1726 114.526 43.493 114.217 43.6715L108.599 46.9138L104.656 43.1019L108.971 38.931L114.217 41.9583ZM108.08 38.4166L103.945 42.4144L89.6544 28.6L102.307 35.0837L108.08 38.4166ZM89.8645 57.4L103.945 43.7893L107.709 47.4282L102.329 50.5341L89.8645 57.4ZM88.8103 29.1592L103.234 43.1016L88.7969 57.0574L88.8103 29.1592Z" fill="white"/>
</svg>
